# xmcd
#
# Track frame offsets:
#	150
#	12502
#	26005
#	40634
#	54145
#	68230
#	81049
#	94780
#	105638
#	123955
#	137327
#	156900
#	174540
#	193093
#	212869
#	226453
#	239080
#	250510
#	265714
#	280016
#	298508
#	310515
#	325290
#	337994
#
# Disc length: 4686 seconds
#
# Revision: 1
# Processed by: cddbd v1.5.2PL0 Copyright (c) Steve Scherf et al.
# Submitted via: EasyCDDAExtractor 16.0.6.1
#
DISCID=47124c18
DTITLE=Συλλογικός δίσκος - Τα ''άκαυτα'' τραγούδια Σμύρνης
DYEAR=1900
DGENRE=Σμυρναίϊκη
TTITLE0=Ελληνική Εστουδιαντίνα - Μπουρνοβαλιά [Σμύρνη 1909]
TTITLE1=Μενεμενλής Λευτέρης - Ελενάκι [Σμύρνη 1911]
TTITLE2=Σμυρναϊκή Εστουδιαντίνα - Εχτές το βράδυ (Θα σπάσω κούπες)[Σμύρνη 1911
TTITLE2=]
TTITLE3=Σμυρναϊκή Εστουδιαντίνα - Δε σε θέλω πια [Σμύρνη 1910]
TTITLE4=Ελληνική Εστουδιαντίνα - Δε σε θέλω πια [Σμύρνη 1910]
TTITLE5=Σμυρναϊκή Εστουδιαντίνα - Μενεμενιώτικο ζεϊμπέκικο [ΚΠολη 1910]
TTITLE6=Ψαμαθιανός Γιάγκος - Τικ τικ τακ [ΚΠολη 1910]
TTITLE7=Άνευ ερμηνευτού - Εμβατήριο της Σμύρνης [Ορχήστρα Πνευστών, Σμύρνη 191
TTITLE7=9] 
TTITLE8=Βιδάλης Γιώργος - Πολίτισσα καμωματού [ΚΠολη 1919]
TTITLE9=Πιπίνα κυρία - Τι σε μέλλει εσένανε [ΚΠολη 1927]
TTITLE10=Δημητριάδης Τέτος - Αραμπάς περνά [ΗΠΑ 1927]
TTITLE11=Παπαγκίκα Μαρίκα - Τα παιδιά της γειτονιάς σου [ΗΠΑ 1928]
TTITLE12=Πούλος Αχιλλέας - Τσακιτζής [ΗΠΑ 1926]
TTITLE13=Κατσαρός Γιώργος - Ο γιατρός [ΗΠΑ 1980]
TTITLE14=Βάκα Αμαλία - Μήλο μου και μανταρίνι [ΗΠΑ 1943]
TTITLE15=Μελκών Μάρκος - Ήθελα νά 'ρθω το βράδυ [ΗΠΑ 1945]
TTITLE16=Μελκών Μάρκος - Γκελ γκελ αμάν [ΗΠΑ 1945]
TTITLE17=Βιδάλης Γιώργος - Η Έλλη [Αθήνα 1925]
TTITLE18=Διαμαντίδης Αντώνης ή Νταλγκάς - Σάλα σάλα [Αθήνα 1927]
TTITLE19=Καρίπης Κώστας - Ταμπαχανιώτικος μανές [Αθήνα 1928]
TTITLE20=Μαρσέλος Κώστας ή Νούρος - Μινόρε μανές [Αθήνα 1928]
TTITLE21=Εσκενάζυ Ρόζα - Κατιφέ [Αθήνα 1931]
TTITLE22=Σωφρονίου Ευάγγελος - Καλέ δε με λυπάσαι [Αθήνα 1930]
TTITLE23=Μαρσέλος Κώστας ή Νούρος - Γιαλέλι αράπικο [Αθήνα 1931/1932]
EXTD=
EXTT0=
EXTT1=
EXTT2=
EXTT3=
EXTT4=
EXTT5=
EXTT6=
EXTT7=
EXTT8=
EXTT9=
EXTT10=
EXTT11=
EXTT12=
EXTT13=
EXTT14=
EXTT15=
EXTT16=
EXTT17=
EXTT18=
EXTT19=
EXTT20=
EXTT21=
EXTT22=
EXTT23=
PLAYORDER=
